<?xml version="1.0" encoding="UTF-8"?><svg id="Layer_2" xmlns="http://www.w3.org/2000/svg" viewBox="0 0 171.28 7.97"><defs><style>.cls-1{fill:#fff;}</style></defs><g id="Layer_1-2"><path class="cls-1" d="m167.6,5.27c.02,1.04.82,1.4,1.81,1.4.87,0,1.87-.35,1.87-1.46,0-.82-.6-1.05-1.65-1.3-.7-.16-1.04-.32-1.04-.68,0-.41.33-.65.89-.65.52,0,.8.26.8.64h.91c0-.86-.66-1.26-1.69-1.26-1.12,0-1.76.53-1.76,1.39,0,.8.59,1.09,1.57,1.31.7.15,1.08.28,1.08.68,0,.38-.31.68-.95.68-.68,0-.88-.4-.89-.77h-.94Zm-2.73-2.66c.85,0,1.12.58,1.12,1.26h-2.33c.09-.85.49-1.26,1.22-1.26m2.03,2.5h-.93c-.05.54-.3.91-1.09.91-.84,0-1.22-.5-1.25-1.55h3.29c0-1.57-.62-2.49-2.02-2.49-1.5,0-2.2.98-2.2,2.35s.69,2.35,2.17,2.35,2.01-.86,2.03-1.57m-6.09,1.47h.91V.1h-.91v6.48Zm-4.18-1.31c0-.54.35-.83,1.23-.96.39-.06.67-.12.81-.22v.54c0,.98-.53,1.41-1.18,1.43-.52.02-.86-.27-.86-.79m2.15,1.31h.85c-.04-.42-.07-.64-.07-1.13v-1.93c0-1.04-.59-1.53-1.8-1.53-1.05,0-1.87.4-1.87,1.32h.97c.04-.41.33-.68.92-.68.68,0,.88.31.88.65,0,.32-.2.45-.94.5-1.37.08-2.02.56-2.02,1.49s.63,1.41,1.49,1.41c.58,0,1.17-.22,1.5-.74.02.37.04.49.07.64M146.89.1l1.91,6.48h1.05l1.57-5.03,1.52,5.03h1.03l1.98-6.48h-.94l-1.53,5.3-1.64-5.3h-.81l-1.67,5.27-1.49-5.27h-.99Zm-6.37,6.48h.91v-2.62c0-.86.53-1.28,1.12-1.28s.99.35.99,1.03v2.87h.91v-2.97c0-1.11-.72-1.63-1.57-1.63-.58,0-1.14.23-1.44.73V.1h-.91v6.48Zm-3.88-3.83h.84v2.64c0,.86.46,1.28,1.34,1.28.25,0,.5-.04.68-.09v-.68c-.13.03-.28.04-.46.04-.4,0-.66-.11-.66-.58v-2.61h1.04v-.66h-1.04V.8h-.9v1.28h-.84v.66Zm-.79-.66h-.91v2.62c0,.85-.53,1.28-1.13,1.28s-.98-.35-.98-1.03v-2.87h-.91v2.97c0,1.11.72,1.63,1.57,1.63.58,0,1.14-.23,1.44-.73v.63h.91V2.08Zm-8.33,2.25c0-1.13.45-1.67,1.27-1.67s1.27.54,1.27,1.67-.45,1.67-1.27,1.67-1.27-.54-1.27-1.67m-.93,0c0,1.37.76,2.35,2.2,2.35s2.19-.98,2.19-2.35-.76-2.35-2.19-2.35-2.2.98-2.2,2.35m-5.6.36c.02,1.33.86,1.99,2.47,1.99s2.45-.72,2.45-1.93c0-1.04-.64-1.48-2.22-1.86-1.08-.25-1.61-.44-1.61-1.07s.5-1.08,1.4-1.08c.73,0,1.29.32,1.32.95h1.01c0-1.17-1.23-1.68-2.29-1.68-1.35,0-2.38.59-2.38,1.89,0,1.15.85,1.51,2.25,1.83,1.16.26,1.57.58,1.57,1.14,0,.66-.5,1.07-1.48,1.07-1.12,0-1.45-.59-1.47-1.24h-1.02Zm-9.51-2.61l1.44,4.5h1.05l1.06-3.27,1.03,3.27h1l1.49-4.5h-.89l-1.07,3.5-1.13-3.5h-.81l-1.15,3.53-1.06-3.53h-.95Zm-2.43.53c.85,0,1.12.58,1.12,1.26h-2.33c.09-.85.49-1.26,1.21-1.26m2.03,2.5h-.93c-.05.54-.3.91-1.09.91-.84,0-1.21-.5-1.25-1.55h3.29c0-1.57-.62-2.49-2.03-2.49-1.5,0-2.19.98-2.19,2.35s.69,2.35,2.17,2.35,2.01-.86,2.03-1.57m-10.99,1.47h.93V1.16h.03l3.46,5.42h1.3V.1h-.93v5.4h-.04L101.4.1h-1.31v6.48ZM96.94.1c-.15-.06-.32-.09-.59-.09-.93,0-1.47.44-1.47,1.41v.66h-.85v.66h.85v3.83h.9v-3.83h1.04v-.66h-1.04v-.65c0-.49.21-.7.69-.7.14,0,.32.02.47.05V.1Zm-6.94,4.23c0-1.13.45-1.67,1.27-1.67s1.27.54,1.27,1.67-.45,1.67-1.27,1.67-1.27-.54-1.27-1.67m-.93,0c0,1.37.76,2.35,2.2,2.35s2.19-.98,2.19-2.35-.76-2.35-2.19-2.35-2.2.98-2.2,2.35m-2.54-2.25h-.95l-1.41,3.17-1.24-3.17h-.95l1.69,4.16-.88,1.71v.03h.98l2.77-5.89Zm-7.48,4.5h.91v-2.41c0-.7.35-1.35,1.39-1.35.11,0,.22,0,.33,0v-.83c-.07,0-.17-.02-.28-.02-.56,0-1.12.29-1.44,1.01v-.91h-.91v4.5Zm-3.03-3.97c.85,0,1.12.58,1.12,1.26h-2.33c.09-.85.49-1.26,1.22-1.26m2.03,2.5h-.93c-.05.54-.3.91-1.09.91-.84,0-1.22-.5-1.25-1.55h3.29c0-1.57-.62-2.49-2.02-2.49-1.5,0-2.2.98-2.2,2.35s.69,2.35,2.17,2.35,2.01-.86,2.03-1.57m-6.09,1.47h.91V.1h-.91v6.48Zm-2.16,0h.91V.1h-.91v6.48Zm-4.18-1.31c0-.54.35-.83,1.23-.96.39-.06.67-.12.81-.22v.54c0,.98-.53,1.41-1.18,1.43-.52.02-.87-.27-.87-.79m2.15,1.31h.85c-.04-.42-.07-.64-.07-1.13v-1.93c0-1.04-.59-1.53-1.8-1.53-1.05,0-1.87.4-1.87,1.32h.97c.04-.41.33-.68.92-.68.68,0,.88.31.88.65,0,.32-.2.45-.94.5-1.37.08-2.01.56-2.01,1.49s.63,1.41,1.49,1.41c.58,0,1.17-.22,1.5-.74.02.37.04.49.07.64m-4.1-4.88c-.04-.92-.9-1.7-2.43-1.7-1.98,0-3.19,1.33-3.19,3.35s1.03,3.33,3.1,3.33c1.33,0,2.09-.54,2.56-.93v-2.5h-2.9v.75h1.98v1.41c-.29.25-.81.48-1.61.48-1.64,0-2.17-1.03-2.17-2.55s.73-2.59,2.19-2.59c.93,0,1.41.42,1.48.95h1Zm-11.37,1.04h.84v2.64c0,.86.46,1.28,1.34,1.28.25,0,.5-.04.67-.09v-.68c-.13.03-.28.04-.46.04-.4,0-.66-.11-.66-.58v-2.61h1.04v-.66h-1.04V.8h-.9v1.28h-.84v.66Zm-3.03,3.83h.91v-2.41c0-.7.35-1.35,1.39-1.35.11,0,.22,0,.33,0v-.83c-.07,0-.17-.02-.28-.02-.56,0-1.12.29-1.44,1.01v-.91h-.91v4.5Zm-4.03-5.63h.21l1.22,3.35h-2.65l1.22-3.35Zm2.27,5.63h1.02L46.08.1h-1.43l-2.46,6.48h1l.55-1.51h3.22l.55,1.51Zm-10.96-4.9c.08-.6.41-.94,1-.94.63,0,1.03.34,1.03,1.04s-.32,1.05-1.03,1.05h-.41v.8h.41c.77,0,1.13.32,1.13,1.13,0,.72-.38,1.17-1.12,1.17s-1.1-.48-1.11-1.08h-1c0,1.21.85,1.83,2.11,1.83,1.46,0,2.07-.91,2.07-1.88,0-.63-.25-1.37-1.21-1.58.9-.26,1.1-.86,1.1-1.46,0-.99-.66-1.75-1.94-1.75-1.09,0-2.01.55-2.01,1.68h.99Zm-5.83,4.9h4.05v-.77h-3.01c.17-.6.67-.95,1.38-1.49,1.05-.77,1.63-1.37,1.63-2.44,0-1.14-.76-1.88-1.97-1.88s-1.99.6-1.99,1.94h.99c0-.75.34-1.18,1.01-1.18.7,0,1.03.47,1.03,1.13,0,.86-.4,1.17-1.28,1.84-.82.63-1.83,1.32-1.83,2.84m-2.67-1.96h2.26v-.85h-2.26v.85Zm-4.61,1.96h4.05v-.77h-3.01c.17-.6.67-.95,1.38-1.49,1.05-.77,1.63-1.37,1.63-2.44,0-1.14-.76-1.88-1.97-1.88s-1.99.6-1.99,1.94h.99c0-.75.34-1.18,1.01-1.18.7,0,1.03.47,1.03,1.13,0,.86-.4,1.17-1.28,1.84-.82.63-1.83,1.32-1.83,2.84m-4.62,0h4.05v-.77h-3.01c.17-.6.67-.95,1.38-1.49,1.05-.77,1.63-1.37,1.63-2.44,0-1.14-.75-1.88-1.97-1.88s-1.99.6-1.99,1.94h.99c0-.75.34-1.18,1.01-1.18.7,0,1.03.47,1.03,1.13,0,.86-.4,1.17-1.28,1.84-.82.63-1.84,1.32-1.83,2.84m-3.84-3.24c0-1.83.37-2.61,1.18-2.61s1.18.78,1.18,2.61-.37,2.6-1.18,2.6-1.18-.77-1.18-2.6m-.94,0c0,2.23.76,3.34,2.12,3.34s2.12-1.11,2.12-3.34-.76-3.34-2.12-3.34-2.12,1.11-2.12,3.34m-4.72,3.24h4.05v-.77h-3.02c.17-.6.67-.95,1.38-1.49,1.05-.77,1.63-1.37,1.63-2.44,0-1.14-.75-1.88-1.97-1.88s-1.99.6-1.99,1.94h.99c0-.75.34-1.18,1.01-1.18.7,0,1.03.47,1.03,1.13,0,.86-.4,1.17-1.28,1.84-.82.63-1.84,1.32-1.83,2.84m-6.02-1.88c-.73,0-1.07-.58-1.07-1.36s.34-1.36,1.07-1.36c.55,0,.77.31.81.67h.73c-.06-.81-.68-1.18-1.54-1.18-1.1,0-1.75.72-1.75,1.87s.66,1.87,1.75,1.87c.86,0,1.48-.37,1.54-1.18h-.73c-.05.36-.26.67-.81.67M.5,3.34C.5,1.71,1.63.47,3.3.47s2.8,1.24,2.8,2.87-1.12,2.87-2.8,2.87S.5,4.97.5,3.34m6.1,0c0-1.85-1.38-3.34-3.3-3.34S0,1.48,0,3.34s1.38,3.34,3.3,3.34,3.3-1.48,3.3-3.34"/></g></svg>