<?xml version="1.0" encoding="UTF-8"?><svg id="Layer_2" xmlns="http://www.w3.org/2000/svg" viewBox="0 0 363.47 90.64"><defs><style>.cls-1{fill:#fff;}</style></defs><g id="Capa_1"><g><path class="cls-1" d="M149.11,61.49c0,3.73-.88,6.63-2.65,8.67-1.77,2.04-4.23,3.08-7.84,3.08s-6.1-1.04-7.89-3.08c-1.79-2.04-2.68-4.93-2.68-8.67V28.2h-21.15v36.69c0,4.53,.72,8.41,2.37,11.65,1.65,3.25,4.02,5.92,6.88,8,2.86,2.08,6.12,3.62,10.01,4.61,3.89,.99,7.97,1.49,12.45,1.49s8.47-.5,12.37-1.49c3.9-.99,7.16-2.52,10.01-4.61,2.86-2.09,5.12-4.76,6.79-8,1.65-3.24,2.48-7.12,2.48-11.65V28.2h-21.16V61.49Z"/><polygon class="cls-1" points="70.39 3.48 53.22 49.23 36.07 3.48 15.04 3.48 0 88.06 21.87 88.06 29.49 40.45 47.93 88.06 58.51 88.06 76.96 40.45 84.58 88.06 106.45 88.06 91.41 3.48 70.39 3.48"/><path class="cls-1" d="M193.84,28.74c-4.04,1.61-7.58,3.87-10.58,6.75-3.01,2.87-5.37,6.28-7.09,10.22-1.72,3.93-2.58,8.24-2.58,12.93,0,4.43,.87,8.55,2.61,12.4,1.75,3.82,4.1,7.14,7.07,9.96,2.98,2.82,6.43,5.04,10.39,6.64,3.95,1.62,8.17,2.41,12.64,2.41,5.03,0,9.97-1.11,14.84-3.36v-17.59c-3.1,2.47-7.14,3.89-11.1,3.89-8.13,0-14.73-6.01-14.73-14.74s6.6-14.74,14.73-14.74c3.96,0,8,1.42,11.1,3.89V29.68c-4.35-2.23-9.1-3.35-14.26-3.35-4.65,0-8.99,.81-13.03,2.42Z"/><path class="cls-1" d="M283.83,34.38c-1.41-1.67-3.08-3.07-4.97-4.19-1.89-1.11-3.97-1.96-6.25-2.51-2.28-.56-4.66-.85-7.11-.85-4.86,0-8.98,.97-12.38,2.91-2.07,1.16-4.33,3.16-6.77,5.99V0h-21.16V88.06h21.16V56c0-3.66,.74-6.44,2.26-8.32,2.18-2.67,5.13-4.01,8.84-4.01,1.8,0,3.49,.42,5.05,1.26,1.57,.83,2.69,1.97,3.39,3.4,.86,1.71,1.29,4.86,1.29,9.42v30.32h21.16V49.94c0-4.13-.41-7.36-1.23-9.68-.77-2.24-1.87-4.19-3.29-5.88Z"/><path class="cls-1" d="M360.89,45.39c-1.72-3.86-4.15-7.21-7.29-10.07-3.14-2.86-6.92-5.13-11.35-6.8-4.43-1.68-9.35-2.52-14.78-2.52s-10.34,.84-14.77,2.52c-4.43,1.68-8.22,3.94-11.35,6.8-3.15,2.86-5.58,6.22-7.29,10.07-1.72,3.85-2.59,7.92-2.59,12.22,0,5.03,.98,9.57,2.95,13.61,1.96,4.04,4.59,7.48,7.9,10.32,3.31,2.84,7.14,5.02,11.48,6.52,4.35,1.51,8.91,2.26,13.68,2.26s9.34-.76,13.68-2.26c4.34-1.5,8.17-3.68,11.48-6.52,3.31-2.83,5.94-6.27,7.89-10.32,1.96-4.04,2.94-8.58,2.94-13.61,0-4.31-.85-8.37-2.58-12.22Zm-33.42,27.6c-8.09-.04-14.65-6.04-14.65-14.73s6.56-14.69,14.65-14.74c8.1,.05,14.65,6.05,14.65,14.74s-6.55,14.69-14.65,14.73Z"/></g></g></svg>