<?xml version="1.0" encoding="UTF-8"?><svg id="Layer_2" xmlns="http://www.w3.org/2000/svg" viewBox="0 0 183.1 43.97"><defs><style>.cls-1{fill:#fff;}</style></defs><g id="Layer_1-2"><g><path class="cls-1" d="m88.59,41.26c0-.54.35-.83,1.23-.96.39-.06.67-.12.81-.22v.54c0,.98-.53,1.41-1.18,1.43-.52.02-.86-.27-.86-.79m2.15,1.31h.85c-.04-.42-.07-.64-.07-1.13v-1.93c0-1.04-.59-1.53-1.8-1.53-1.05,0-1.87.4-1.87,1.32h.97c.04-.41.33-.68.92-.68.68,0,.88.31.88.65,0,.32-.2.45-.94.51-1.37.08-2.01.56-2.01,1.49s.63,1.41,1.49,1.41c.58,0,1.17-.22,1.5-.74.02.37.04.49.07.64m-4.04-4.5h-.91v4.5h.91v-4.5Zm.05-1.98h-1.02v.95h1.02v-.95Zm-3.12,6.48h.91v-6.48h-.91v6.48Zm-4.18-1.31c0-.54.35-.83,1.23-.96.39-.06.67-.12.81-.22v.54c0,.98-.53,1.41-1.18,1.43-.52.02-.86-.27-.86-.79m2.15,1.31h.85c-.04-.42-.07-.64-.07-1.13v-1.93c0-1.04-.59-1.53-1.8-1.53-1.05,0-1.87.4-1.87,1.32h.97c.04-.41.33-.68.92-.68.68,0,.88.31.88.65,0,.32-.2.45-.94.51-1.37.08-2.02.56-2.02,1.49s.63,1.41,1.49,1.41c.58,0,1.17-.22,1.5-.74.02.37.04.49.07.64m-6.1,0h.91v-2.41c0-.7.35-1.35,1.39-1.35.11,0,.22,0,.33,0v-.83c-.07,0-.17-.02-.28-.02-.56,0-1.12.29-1.44,1.01v-.91h-.91v4.5Zm-3.88-3.83h.84v2.64c0,.85.46,1.28,1.34,1.28.25,0,.5-.05.68-.09v-.68c-.13.03-.28.05-.46.05-.41,0-.66-.11-.66-.58v-2.61h1.04v-.67h-1.04v-1.28h-.9v1.28h-.84v.67Zm-4.16,2.53c.02,1.04.82,1.4,1.81,1.4.87,0,1.87-.35,1.87-1.46,0-.82-.6-1.05-1.65-1.3-.7-.16-1.04-.33-1.04-.68,0-.41.33-.65.89-.65.52,0,.8.26.8.64h.91c0-.85-.66-1.26-1.69-1.26-1.12,0-1.76.53-1.76,1.39,0,.8.59,1.09,1.57,1.31.7.15,1.08.28,1.08.68,0,.38-.31.68-.95.68-.68,0-.88-.4-.89-.77h-.94Zm-.9-3.19h-.91v2.62c0,.85-.53,1.28-1.12,1.28s-.98-.35-.98-1.03v-2.87h-.91v2.97c0,1.11.72,1.63,1.58,1.63.58,0,1.14-.23,1.44-.73v.63h.91v-4.5Zm-7.79-1.13h.21l1.22,3.35h-2.65l1.22-3.35Zm2.27,5.63h1.02l-2.45-6.48h-1.43l-2.46,6.48h1l.55-1.51h3.22l.55,1.51Zm-9.07-1.1l-.43,2.23h.69l.74-2.23h-1Zm-4.12-2.14c0-1.83.37-2.61,1.18-2.61s1.18.78,1.18,2.61-.37,2.6-1.18,2.6-1.18-.77-1.18-2.6m-.94,0c0,2.23.76,3.34,2.12,3.34s2.12-1.11,2.12-3.34-.76-3.34-2.12-3.34-2.12,1.11-2.12,3.34m-4.03,0c0-1.83.37-2.61,1.18-2.61s1.18.78,1.18,2.61-.37,2.6-1.18,2.6-1.18-.77-1.18-2.6m-.94,0c0,2.23.76,3.34,2.12,3.34s2.12-1.11,2.12-3.34-.77-3.34-2.12-3.34-2.12,1.11-2.12,3.34m-4.03,0c0-1.83.37-2.61,1.18-2.61s1.18.78,1.18,2.61-.37,2.6-1.18,2.6-1.18-.77-1.18-2.6m-.94,0c0,2.23.76,3.34,2.12,3.34s2.12-1.11,2.12-3.34-.76-3.34-2.12-3.34-2.12,1.11-2.12,3.34m-4.72,3.24h4.05v-.77h-3.01c.17-.6.67-.95,1.38-1.48,1.05-.77,1.63-1.37,1.63-2.44,0-1.14-.76-1.88-1.97-1.88s-1.99.6-1.99,1.94h.99c0-.75.34-1.18,1.01-1.18.7,0,1.03.47,1.03,1.12,0,.86-.4,1.17-1.28,1.85-.82.63-1.83,1.32-1.83,2.84m-2.4-4.5h-.95l-1.41,3.17-1.24-3.17h-.95l1.69,4.16-.88,1.71v.03h.98l2.77-5.89Zm-7.02.53c.85,0,1.12.58,1.12,1.26h-2.33c.09-.85.49-1.26,1.22-1.26m2.03,2.5h-.93c-.05.54-.3.91-1.09.91-.84,0-1.22-.5-1.25-1.55h3.29c0-1.58-.62-2.49-2.02-2.49-1.5,0-2.19.98-2.19,2.35s.69,2.35,2.17,2.35,2.01-.86,2.03-1.57m-9.08,1.47h.91v-2.62c0-.85.53-1.28,1.12-1.28s.99.35.99,1.03v2.87h.91v-2.97c0-1.11-.72-1.63-1.57-1.63-.58,0-1.14.23-1.44.73v-.63h-.91v4.5Zm-2.11-2.25c0,1.14-.41,1.68-1.25,1.68s-1.25-.54-1.25-1.68.41-1.68,1.25-1.68,1.25.54,1.25,1.68m-.04-4.23v2.61c-.32-.49-.85-.73-1.48-.73-1.08,0-1.92.69-1.92,2.35s.84,2.35,1.92,2.35c.62,0,1.15-.23,1.48-.73v.63h.9v-6.48h-.9Zm-3.61,1.98h-.95l-1.41,3.17-1.24-3.17h-.95l1.69,4.16-.88,1.71v.03h.98l2.77-5.89ZM.15,40.69c.02,1.33.86,1.99,2.47,1.99s2.45-.72,2.45-1.93c0-1.04-.64-1.49-2.22-1.86-1.08-.25-1.61-.44-1.61-1.07s.5-1.08,1.39-1.08c.73,0,1.29.32,1.32.95h1.01c0-1.17-1.23-1.68-2.29-1.68-1.35,0-2.37.59-2.37,1.89,0,1.15.84,1.51,2.25,1.83,1.16.26,1.57.58,1.57,1.14,0,.66-.5,1.07-1.48,1.07-1.12,0-1.45-.59-1.47-1.24H.15Z"/><path class="cls-1" d="m116.65,30.58h.91v-2.62c0-.85.53-1.28,1.12-1.28s.99.35.99,1.03v2.87h.91v-2.97c0-1.11-.72-1.63-1.57-1.63-.58,0-1.14.23-1.44.73v-.63h-.91v4.5Zm-1.25-4.5h-.91v4.5h.91v-4.5Zm.05-1.98h-1.02v.95h1.02v-.95Zm-5.14,5.17c0-.54.35-.83,1.23-.96.39-.06.67-.12.81-.22v.54c0,.98-.53,1.41-1.18,1.43-.52.02-.86-.27-.86-.79m2.15,1.31h.85c-.04-.42-.07-.64-.07-1.13v-1.94c0-1.04-.59-1.53-1.8-1.53-1.05,0-1.87.4-1.87,1.32h.97c.04-.41.33-.68.92-.68.69,0,.88.31.88.65,0,.32-.2.45-.94.5-1.37.08-2.02.56-2.02,1.49s.63,1.41,1.49,1.41c.58,0,1.17-.22,1.5-.74.02.37.04.49.07.64m-10.8,0h.91v-2.62c0-.85.51-1.28,1.08-1.28s.96.35.96,1.03v2.87h.9v-2.62c0-.85.52-1.28,1.09-1.28s.95.35.95,1.03v2.87h.91v-2.97c0-1.11-.7-1.63-1.55-1.63-.62,0-1.24.28-1.53.87-.24-.59-.78-.87-1.4-.87-.56,0-1.12.23-1.4.73v-.63h-.91v4.5Zm-4.44-2.25c0-1.13.45-1.67,1.27-1.67s1.27.54,1.27,1.67-.45,1.67-1.27,1.67-1.27-.54-1.27-1.67m-.93,0c0,1.37.76,2.35,2.19,2.35s2.19-.98,2.19-2.35-.76-2.35-2.19-2.35-2.19.98-2.19,2.35m-3.97-3.47c1.54,0,2.24.75,2.24,2.49s-.7,2.48-2.24,2.48h-1.31v-4.97h1.31Zm-2.27,5.72h2.28c2.12,0,3.19-1.07,3.19-3.24s-1.08-3.24-3.19-3.24h-2.28v6.48Zm-5.22-3.97c.85,0,1.12.58,1.12,1.26h-2.33c.09-.85.49-1.26,1.22-1.26m2.03,2.5h-.93c-.05.54-.3.91-1.09.91-.84,0-1.21-.49-1.25-1.55h3.29c0-1.58-.62-2.49-2.02-2.49-1.5,0-2.19.98-2.19,2.35s.69,2.35,2.17,2.35,2.01-.86,2.03-1.57m-9.08,1.47h.91v-2.62c0-.85.53-1.28,1.12-1.28s.99.35.99,1.03v2.87h.91v-2.97c0-1.11-.72-1.63-1.57-1.63-.58,0-1.14.23-1.44.73v-2.61h-.91v6.48Zm-6.17-5.72h2.24v5.72h.95v-5.72h2.24v-.76h-5.43v.76Zm-3.29,4.63l-.43,2.23h.69l.74-2.23h-1Zm-2.12-1.15c0,1.14-.41,1.68-1.25,1.68s-1.25-.54-1.25-1.68.41-1.68,1.25-1.68,1.25.54,1.25,1.68m-.04-4.23v2.61c-.32-.49-.86-.73-1.48-.73-1.08,0-1.92.69-1.92,2.35s.84,2.35,1.92,2.35c.62,0,1.15-.23,1.48-.73v.63h.9v-6.48h-.9Zm-7.3,5.17c0-.54.35-.83,1.23-.96.39-.06.67-.12.81-.22v.54c0,.98-.53,1.41-1.18,1.43-.52.02-.86-.27-.86-.79m2.15,1.31h.85c-.04-.42-.07-.64-.07-1.13v-1.94c0-1.04-.59-1.53-1.8-1.53-1.05,0-1.87.4-1.87,1.32h.97c.04-.41.33-.68.92-.68.68,0,.88.31.88.65,0,.32-.2.45-.94.5-1.37.08-2.02.56-2.02,1.49s.63,1.41,1.49,1.41c.58,0,1.17-.22,1.5-.74.02.37.04.49.07.64m-7.23-2.25c0-1.13.45-1.67,1.27-1.67s1.27.54,1.27,1.67-.45,1.67-1.27,1.67-1.27-.54-1.27-1.67m-.93,0c0,1.37.76,2.35,2.2,2.35s2.19-.98,2.19-2.35-.76-2.35-2.19-2.35-2.2.98-2.2,2.35m-3.03-3.48c.76,0,1.27.28,1.27,1.09s-.51,1.08-1.27,1.08h-1.63v-2.17h1.63Zm-2.58,5.73h.95v-2.81h1.59c.76,0,1.18.3,1.23,1.34.03.38.04,1.03.05,1.47h.96c-.02-.48-.04-.85-.07-1.4-.07-1.08-.5-1.55-1.08-1.73.66-.2,1.17-.62,1.17-1.6,0-1.12-.75-1.75-2.13-1.75h-2.68v6.48Zm-2.91-4.5h-.95l-1.41,3.17-1.24-3.17h-.95l1.69,4.16-.88,1.71v.03h.98l2.77-5.89Zm-7.48,4.5h.91v-2.41c0-.7.35-1.35,1.39-1.35.11,0,.22,0,.33,0v-.83c-.07,0-.17-.02-.28-.02-.56,0-1.12.29-1.44,1.01v-.91h-.91v4.5Zm-3.03-3.97c.85,0,1.12.58,1.12,1.26h-2.33c.09-.85.49-1.26,1.22-1.26m2.03,2.5h-.93c-.05.54-.3.91-1.09.91-.84,0-1.22-.49-1.25-1.55h3.29c0-1.58-.62-2.49-2.02-2.49-1.5,0-2.19.98-2.19,2.35s.69,2.35,2.17,2.35,2.01-.86,2.03-1.57m-6.09,1.47h.91v-6.48h-.91v6.48Zm-2.16,0h.91v-6.48h-.91v6.48Zm-4.18-1.31c0-.54.35-.83,1.23-.96.39-.06.67-.12.81-.22v.54c0,.98-.53,1.41-1.18,1.43-.52.02-.86-.27-.86-.79m2.15,1.31h.85c-.04-.42-.07-.64-.07-1.13v-1.94c0-1.04-.59-1.53-1.8-1.53-1.05,0-1.87.4-1.87,1.32h.97c.04-.41.33-.68.92-.68.69,0,.88.31.88.65,0,.32-.2.45-.94.5-1.37.08-2.01.56-2.01,1.49s.63,1.41,1.49,1.41c.58,0,1.17-.22,1.5-.74.02.37.05.49.07.64m-4.1-4.88c-.04-.92-.9-1.7-2.43-1.7-1.98,0-3.19,1.33-3.19,3.35s1.03,3.33,3.1,3.33c1.33,0,2.09-.54,2.56-.93v-2.5h-2.9v.75h1.98v1.41c-.29.25-.81.48-1.61.48-1.64,0-2.17-1.03-2.17-2.55s.73-2.59,2.19-2.59c.93,0,1.41.42,1.48.95h1Zm-11.37,1.04h.84v2.64c0,.85.46,1.28,1.34,1.28.25,0,.5-.05.68-.09v-.68c-.13.03-.28.05-.46.05-.4,0-.66-.11-.66-.58v-2.61h1.04v-.67h-1.04v-1.28h-.9v1.28h-.84v.67Zm-3.03,3.83h.91v-2.41c0-.7.35-1.35,1.39-1.35.11,0,.22,0,.33,0v-.83c-.07,0-.17-.02-.28-.02-.56,0-1.12.29-1.44,1.01v-.91h-.91v4.5Zm-4.03-5.63h.21l1.22,3.35H1.84l1.21-3.35Zm2.27,5.63h1.02l-2.45-6.48h-1.43l-2.46,6.48h1l.55-1.51h3.22l.55,1.51Z"/><path class="cls-1" d="m78.76,14.08h-.95l-1.41,3.17-1.24-3.17h-.95l1.69,4.16-.88,1.71v.03h.98l2.77-5.89Zm-7.48,4.5h.91v-2.41c0-.7.35-1.35,1.39-1.35.11,0,.22,0,.33,0v-.83c-.07,0-.17-.02-.28-.02-.56,0-1.12.29-1.44,1.01v-.91h-.91v4.5Zm-3.88-3.83h.84v2.64c0,.85.46,1.28,1.34,1.28.25,0,.5-.04.67-.09v-.68c-.13.03-.28.05-.46.05-.4,0-.66-.11-.66-.58v-2.61h1.04v-.66h-1.04v-1.28h-.9v1.28h-.84v.66Zm-4.64,3.83h.91v-2.62c0-.85.53-1.28,1.12-1.28s.99.35.99,1.03v2.87h.91v-2.97c0-1.11-.72-1.63-1.57-1.63-.58,0-1.14.23-1.44.73v-.63h-.91v4.5Zm-1.25-4.5h-.91v2.62c0,.85-.53,1.28-1.12,1.28s-.98-.35-.98-1.03v-2.87h-.91v2.97c0,1.11.72,1.63,1.57,1.63.58,0,1.14-.23,1.44-.73v.63h.91v-4.5Zm-8.33,2.25c0-1.13.45-1.67,1.27-1.67s1.27.54,1.27,1.67-.45,1.67-1.27,1.67-1.27-.54-1.27-1.67m-.93,0c0,1.37.76,2.35,2.2,2.35s2.19-.98,2.19-2.35-.76-2.35-2.19-2.35-2.2.98-2.2,2.35m-3.4,1.59c-1.43,0-2.06-1.05-2.06-2.58s.63-2.58,2.06-2.58c1.1,0,1.51.57,1.59,1.22h1.03c-.11-1.31-1.12-1.97-2.63-1.97-1.95,0-3.02,1.29-3.02,3.34s1.07,3.34,3.02,3.34c1.51,0,2.52-.66,2.63-1.97h-1.03c-.08.65-.49,1.22-1.59,1.22m-7.05.65h.91v-6.48h-.91v6.48Zm-4.18-1.31c0-.54.35-.83,1.23-.96.39-.06.67-.12.81-.22v.54c0,.98-.53,1.41-1.18,1.43-.52.02-.87-.27-.87-.79m2.15,1.31h.85c-.04-.42-.07-.64-.07-1.13v-1.94c0-1.04-.59-1.53-1.8-1.53-1.05,0-1.87.4-1.87,1.32h.97c.04-.41.33-.68.92-.68.68,0,.88.31.88.65,0,.32-.2.45-.94.5-1.37.08-2.01.56-2.01,1.49s.63,1.41,1.49,1.41c.58,0,1.17-.22,1.5-.74.02.37.04.49.07.64m-4.87-2.38c0,1-.41,1.56-1.22,1.56s-1.22-.56-1.22-1.56.41-1.56,1.22-1.56,1.22.55,1.22,1.56m.87,1.76v-3.88h-.91v.59c-.32-.47-.86-.69-1.45-.69-1.06,0-1.89.76-1.89,2.22s.84,2.22,1.91,2.22c.59,0,1.11-.22,1.43-.69v.3c0,.96-.3,1.43-1.19,1.43-.65,0-.93-.27-.95-.68h-1.01c.03.75.59,1.29,1.89,1.29,1.58,0,2.16-.93,2.16-2.11m-5.22-3.88h-.91v4.5h.91v-4.5Zm.05-1.98h-1.02v.95h1.02v-.95Zm-3.08,4.23c0,1.14-.42,1.68-1.25,1.68s-1.25-.54-1.25-1.68.41-1.68,1.25-1.68,1.25.54,1.25,1.68m-.04-4.23v2.61c-.32-.49-.86-.73-1.48-.73-1.08,0-1.92.69-1.92,2.35s.84,2.35,1.92,2.35c.62,0,1.15-.23,1.48-.73v.63h.9v-6.48h-.9Zm-7.3,5.17c0-.54.35-.83,1.23-.96.39-.06.67-.12.81-.22v.54c0,.98-.53,1.41-1.18,1.43-.52.02-.86-.27-.86-.79m2.15,1.31h.85c-.04-.42-.07-.64-.07-1.13v-1.94c0-1.04-.59-1.53-1.8-1.53-1.05,0-1.87.4-1.87,1.32h.97c.04-.41.33-.68.92-.68.68,0,.88.31.88.65,0,.32-.2.45-.94.5-1.37.08-2.01.56-2.01,1.49s.63,1.41,1.49,1.41c.58,0,1.17-.22,1.5-.74.02.37.05.49.07.64m-4.1-4.88c-.04-.92-.9-1.7-2.43-1.7-1.98,0-3.19,1.33-3.19,3.35s1.03,3.33,3.1,3.33c1.33,0,2.09-.54,2.56-.93v-2.5h-2.9v.75h1.98v1.41c-.29.25-.81.48-1.61.48-1.64,0-2.17-1.03-2.17-2.55s.73-2.59,2.19-2.59c.93,0,1.41.42,1.48.95h1Zm-12.63,4.88h.91v-2.62c0-.85.53-1.28,1.12-1.28s.99.35.99,1.03v2.87h.91v-2.97c0-1.11-.72-1.63-1.57-1.63-.58,0-1.14.23-1.44.73v-.63h-.91v4.5Zm-4.44-2.25c0-1.13.45-1.67,1.27-1.67s1.27.54,1.27,1.67-.45,1.67-1.27,1.67-1.27-.54-1.27-1.67m-.93,0c0,1.37.76,2.35,2.19,2.35s2.19-.98,2.19-2.35-.76-2.35-2.19-2.35S.23,14.96.23,16.33"/><path class="cls-1" d="m179.42,5.27c.02,1.03.82,1.4,1.81,1.4.87,0,1.87-.35,1.87-1.46,0-.82-.6-1.05-1.65-1.3-.7-.16-1.04-.32-1.04-.67,0-.41.33-.65.89-.65.52,0,.8.26.8.64h.91c0-.85-.66-1.26-1.69-1.26-1.12,0-1.76.53-1.76,1.39,0,.8.59,1.09,1.57,1.31.7.15,1.08.28,1.08.68,0,.38-.31.68-.95.68-.68,0-.88-.4-.89-.76h-.94Zm-2.73-2.66c.85,0,1.12.58,1.12,1.26h-2.33c.09-.85.49-1.26,1.22-1.26m2.03,2.5h-.93c-.06.54-.3.91-1.09.91-.84,0-1.22-.49-1.25-1.55h3.29c0-1.58-.62-2.49-2.02-2.49-1.5,0-2.2.98-2.2,2.35s.69,2.35,2.17,2.35,2.01-.86,2.03-1.57m-6.09,1.47h.91V.1h-.91v6.48Zm-4.18-1.31c0-.54.35-.83,1.23-.96.39-.06.67-.12.81-.22v.54c0,.98-.53,1.41-1.18,1.43-.52.02-.86-.27-.86-.79m2.15,1.31h.85c-.04-.42-.07-.64-.07-1.13v-1.93c0-1.04-.59-1.53-1.8-1.53-1.05,0-1.87.4-1.87,1.32h.97c.04-.41.33-.68.92-.68.68,0,.88.31.88.65,0,.32-.2.45-.94.5-1.37.08-2.01.56-2.01,1.5s.63,1.41,1.49,1.41c.58,0,1.17-.22,1.5-.74.02.37.04.49.07.64M158.7.1l1.91,6.48h1.05l1.57-5.03,1.52,5.03h1.04l1.98-6.48h-.94l-1.53,5.3-1.64-5.3h-.81l-1.67,5.27-1.48-5.27h-.99Zm-6.37,6.48h.91v-2.62c0-.86.53-1.28,1.12-1.28s.99.35.99,1.03v2.87h.91v-2.97c0-1.11-.72-1.63-1.57-1.63-.58,0-1.14.23-1.44.73V.1h-.91v6.48Zm-3.88-3.83h.84v2.64c0,.85.46,1.28,1.34,1.28.25,0,.5-.05.68-.09v-.68c-.13.03-.28.05-.46.05-.4,0-.66-.11-.66-.58v-2.61h1.04v-.66h-1.04V.8h-.9v1.28h-.84v.66Zm-.79-.66h-.91v2.62c0,.85-.53,1.28-1.13,1.28s-.98-.35-.98-1.03v-2.87h-.91v2.97c0,1.11.72,1.63,1.57,1.63.58,0,1.14-.23,1.44-.73v.63h.91V2.08Zm-8.33,2.25c0-1.13.45-1.67,1.27-1.67s1.27.54,1.27,1.67-.45,1.67-1.27,1.67-1.27-.54-1.27-1.67m-.93,0c0,1.37.76,2.35,2.2,2.35s2.19-.98,2.19-2.35-.76-2.35-2.19-2.35-2.2.98-2.2,2.35m-5.6.36c.02,1.33.86,1.99,2.47,1.99s2.45-.72,2.45-1.93c0-1.04-.64-1.49-2.22-1.86-1.08-.25-1.61-.44-1.61-1.07s.5-1.08,1.4-1.08c.73,0,1.29.32,1.32.95h1.01c0-1.17-1.23-1.68-2.29-1.68-1.35,0-2.38.59-2.38,1.89,0,1.15.85,1.51,2.25,1.83,1.16.26,1.57.58,1.57,1.14,0,.66-.5,1.07-1.48,1.07-1.12,0-1.45-.58-1.47-1.24h-1.02Zm-9.51-2.61l1.44,4.5h1.05l1.06-3.27,1.03,3.27h1l1.49-4.5h-.89l-1.07,3.5-1.13-3.5h-.81l-1.15,3.53-1.06-3.53h-.95Zm-2.43.53c.85,0,1.12.58,1.12,1.26h-2.33c.09-.85.49-1.26,1.22-1.26m2.03,2.5h-.93c-.05.54-.3.91-1.09.91-.84,0-1.22-.49-1.25-1.55h3.29c0-1.58-.62-2.49-2.02-2.49-1.5,0-2.2.98-2.2,2.35s.69,2.35,2.17,2.35,2.01-.86,2.03-1.57m-10.99,1.47h.93V1.16h.03l3.46,5.42h1.3V.1h-.93v5.4h-.04L113.22.1h-1.31v6.48ZM108.75.1c-.15-.05-.32-.09-.59-.09-.93,0-1.47.44-1.47,1.41v.66h-.85v.66h.85v3.83h.9v-3.83h1.04v-.66h-1.04v-.65c0-.49.21-.7.69-.7.14,0,.31.02.47.05V.1Zm-6.94,4.23c0-1.13.45-1.67,1.27-1.67s1.27.54,1.27,1.67-.45,1.67-1.27,1.67-1.27-.54-1.27-1.67m-.93,0c0,1.37.76,2.35,2.2,2.35s2.19-.98,2.19-2.35-.76-2.35-2.19-2.35-2.2.98-2.2,2.35m-2.54-2.25h-.95l-1.41,3.17-1.24-3.17h-.95l1.69,4.16-.88,1.71v.03h.98l2.77-5.89Zm-7.48,4.5h.91v-2.41c0-.7.35-1.35,1.39-1.35.11,0,.22,0,.33,0v-.83c-.07,0-.17-.02-.28-.02-.56,0-1.12.29-1.44,1.01v-.91h-.91v4.5Zm-3.03-3.97c.85,0,1.12.58,1.12,1.26h-2.33c.09-.85.49-1.26,1.22-1.26m2.03,2.5h-.93c-.05.54-.3.91-1.09.91-.84,0-1.21-.49-1.25-1.55h3.29c0-1.58-.62-2.49-2.02-2.49-1.5,0-2.2.98-2.2,2.35s.69,2.35,2.17,2.35,2.01-.86,2.03-1.57m-6.09,1.47h.91V.1h-.91v6.48Zm-2.16,0h.91V.1h-.91v6.48Zm-4.18-1.31c0-.54.35-.83,1.23-.96.39-.06.67-.12.81-.22v.54c0,.98-.53,1.41-1.18,1.43-.52.02-.86-.27-.86-.79m2.15,1.31h.85c-.04-.42-.07-.64-.07-1.13v-1.93c0-1.04-.59-1.53-1.8-1.53-1.05,0-1.87.4-1.87,1.32h.97c.04-.41.33-.68.92-.68.68,0,.88.31.88.65,0,.32-.2.45-.94.5-1.37.08-2.01.56-2.01,1.5s.63,1.41,1.49,1.41c.58,0,1.17-.22,1.5-.74.02.37.04.49.07.64m-4.1-4.88c-.04-.92-.9-1.7-2.43-1.7-1.98,0-3.19,1.33-3.19,3.35s1.03,3.33,3.1,3.33c1.33,0,2.09-.54,2.56-.93v-2.5h-2.9v.75h1.98v1.41c-.29.25-.81.48-1.61.48-1.64,0-2.17-1.03-2.17-2.55s.73-2.59,2.19-2.59c.93,0,1.41.42,1.48.94h1Zm-11.37,1.04h.84v2.64c0,.85.46,1.28,1.34,1.28.25,0,.5-.05.68-.09v-.68c-.13.03-.28.05-.46.05-.4,0-.66-.11-.66-.58v-2.61h1.04v-.66h-1.04V.8h-.9v1.28h-.84v.66Zm-3.03,3.83h.91v-2.41c0-.7.35-1.35,1.39-1.35.11,0,.22,0,.33,0v-.83c-.07,0-.17-.02-.28-.02-.56,0-1.12.29-1.44,1.01v-.91h-.91v4.5Zm-4.03-5.63h.21l1.22,3.35h-2.65l1.22-3.35Zm2.27,5.63h1.02L57.9.1h-1.43l-2.46,6.48h1l.55-1.51h3.22l.55,1.51Zm-7.62-4.5h-.95l-1.41,3.17-1.24-3.17h-.95l1.69,4.16-.88,1.71v.03h.98l2.77-5.89Zm-8.4,2.25c0-1.14.41-1.68,1.25-1.68s1.25.54,1.25,1.68-.41,1.68-1.25,1.68-1.25-.54-1.25-1.68m.04-4.23h-.91v6.48h.91v-.61c.32.48.86.71,1.48.71,1.07,0,1.91-.69,1.91-2.35s-.84-2.35-1.91-2.35c-.62,0-1.15.23-1.48.71V.1Zm-5.12,4.23c0,1.14-.41,1.68-1.25,1.68s-1.25-.54-1.25-1.68.41-1.68,1.25-1.68,1.25.54,1.25,1.68m-.04-4.23v2.61c-.32-.49-.85-.73-1.48-.73-1.08,0-1.92.69-1.92,2.35s.84,2.35,1.92,2.35c.62,0,1.15-.23,1.48-.73v.63h.9V.1h-.9Zm-6.16,2.51c.85,0,1.12.58,1.12,1.26h-2.33c.09-.85.49-1.26,1.22-1.26m2.03,2.5h-.94c-.05.54-.3.91-1.09.91-.84,0-1.22-.49-1.25-1.55h3.29c0-1.58-.62-2.49-2.02-2.49-1.5,0-2.2.98-2.2,2.35s.69,2.35,2.17,2.35,2.01-.86,2.03-1.57m-9.08,1.47h.91v-2.62c0-.86.53-1.28,1.12-1.28s.99.35.99,1.03v2.87h.91v-2.97c0-1.11-.72-1.63-1.57-1.63-.58,0-1.14.23-1.44.73V.1h-.91v6.48Zm-4.62-1.3c.02,1.03.82,1.4,1.81,1.4.87,0,1.87-.35,1.87-1.46,0-.82-.6-1.05-1.65-1.3-.7-.16-1.05-.32-1.05-.67,0-.41.33-.65.89-.65.52,0,.8.26.8.64h.91c0-.85-.66-1.26-1.69-1.26-1.12,0-1.75.53-1.75,1.39,0,.8.59,1.09,1.57,1.31.7.15,1.08.28,1.08.68,0,.38-.31.68-.95.68-.68,0-.88-.4-.89-.76h-.94Zm-.9-3.19h-.91v4.5h.91V2.08Zm.05-1.98h-1.02v.95h1.02V.1Zm-3.12,6.48h.91V.1h-.91v6.48Zm-4.41-2.25c0-1.14.41-1.68,1.25-1.68s1.25.54,1.25,1.68-.41,1.68-1.25,1.68-1.25-.54-1.25-1.68m.04-4.23h-.91v6.48h.91v-.61c.32.48.86.71,1.48.71,1.07,0,1.91-.69,1.91-2.35s-.84-2.35-1.91-2.35c-.62,0-1.15.23-1.48.71V.1Zm-2.16,1.98h-.91v2.62c0,.85-.53,1.28-1.13,1.28s-.98-.35-.98-1.03v-2.87h-.91v2.97c0,1.11.72,1.63,1.57,1.63.58,0,1.14-.23,1.44-.73v.63h.91V2.08ZM3.1.85c.73,0,1.19.34,1.19,1.19s-.46,1.2-1.19,1.2h-1.55V.85h1.55ZM.59.1v6.48h.95v-2.58h1.57c1.38,0,2.14-.74,2.14-1.95S4.49.1,3.11.1H.59Z"/></g></g></svg>